<?xml version="1.0" encoding="UTF-8" standalone="no"?>
<svg
   xmlns:dc="http://purl.org/dc/elements/1.1/"
   xmlns:cc="http://creativecommons.org/ns#"
   xmlns:rdf="http://www.w3.org/1999/02/22-rdf-syntax-ns#"
   xmlns:svg="http://www.w3.org/2000/svg"
   xmlns="http://www.w3.org/2000/svg"
   xmlns:sodipodi="http://sodipodi.sourceforge.net/DTD/sodipodi-0.dtd"
   xmlns:inkscape="http://www.inkscape.org/namespaces/inkscape"
   inkscape:version="1.0 (4035a4fb49, 2020-05-01)"
   sodipodi:docname="eye-1915455_1280.svg"
   viewBox="0 0 1280 662"
   height="662"
   width="1280"
   id="svg2"
   version="1.1">
  <metadata
     id="metadata8">
    <rdf:RDF>
      <cc:Work
         rdf:about="">
        <dc:format>image/svg+xml</dc:format>
        <dc:type
           rdf:resource="http://purl.org/dc/dcmitype/StillImage" />
        <dc:title></dc:title>
      </cc:Work>
    </rdf:RDF>
  </metadata>
  <defs
     id="defs6" />
  <sodipodi:namedview
     inkscape:current-layer="g10"
     inkscape:window-maximized="1"
     inkscape:window-y="-8"
     inkscape:window-x="1016"
     inkscape:cy="305.30347"
     inkscape:cx="562.38752"
     inkscape:zoom="0.57465778"
     showgrid="false"
     id="namedview4"
     inkscape:window-height="705"
     inkscape:window-width="1366"
     inkscape:pageshadow="2"
     inkscape:pageopacity="0"
     guidetolerance="10"
     gridtolerance="10"
     objecttolerance="10"
     borderopacity="1"
     bordercolor="#666666"
     pagecolor="#ffffff" />
  <g
     id="g10"
     inkscape:label="Image"
     inkscape:groupmode="layer">
    <path
       d="M 812.43555 193.10938 C 811.65588 193.12761 811.01368 193.60593 810.32422 194.48242 C 808.72101 196.52062 809.3771 197.7452 814.88867 203.01758 C 829.76197 217.24542 841.57282 233.57849 850.79102 252.66406 C 871.06708 294.64418 873.21559 343.00325 856.75781 386.9668 C 845.14463 417.98898 823.64567 446.16323 796.82031 465.51562 C 794.5414 467.1597 792.54421 468.8489 792.38281 469.26953 C 791.77908 470.84276 792.11928 472.30779 793.30469 473.24023 C 795.44074 474.92046 797.94129 473.51269 809.33789 464.21484 C 840.9447 438.42877 863.01185 401.56829 870.93945 361.31055 C 876.68471 332.1356 875.00451 301.31027 866.13867 273.18164 C 857.04833 244.34095 840.98444 218.77386 818.36328 197.14258 C 815.41994 194.32807 813.73499 193.07898 812.43555 193.10938 z M 783.64062 212.13086 C 782.06021 212.16466 780.6343 213.11822 780.0332 214.69922 C 779.17584 216.95426 780.30884 218.60867 786.16016 223.64453 C 806.38159 241.04791 821.46185 265.35257 828.58594 291.62695 C 832.16189 294.85445 835.729 298.23713 839.28906 301.76562 C 834.98856 277.14706 824.4359 254.1557 808.21484 234.43555 C 801.50918 226.28337 788.22484 213.54584 785.24805 212.41406 C 784.71142 212.21004 784.16743 212.11959 783.64062 212.13086 z M 839.28906 301.76562 C 840.74429 310.09618 841.48633 318.61425 841.48633 327.25391 C 841.48633 335.70214 840.75131 344.08217 839.31641 352.3125 C 847.03636 345.08644 854.19549 337.57778 860.4707 330.04102 L 862.75 327.30469 L 860.58984 324.77539 C 853.51905 316.49675 846.41949 308.83283 839.28906 301.76562 z M 839.31641 352.3125 C 835.93147 355.48088 832.43251 358.58842 828.85742 361.625 C 820.51419 393.68059 800.71864 422.42645 772.18359 441.40234 C 765.45952 445.87385 765.02448 446.35074 765.36328 448.87695 C 765.51009 449.97139 766.01609 451.13865 766.50586 451.50977 C 768.29063 452.86234 770.6313 452.35652 774.64062 449.75195 C 789.9058 439.83535 803.67251 426.77644 814.02344 412.39453 C 826.96418 394.41431 835.5559 373.88205 839.31641 352.3125 z M 828.85742 361.625 C 833.87068 342.36351 834.75022 321.9066 830.9043 301.65625 C 830.26461 298.28802 829.48488 294.94236 828.58594 291.62695 C 822.34927 285.99802 816.08668 280.82354 809.79883 276.10742 C 803.97174 271.7369 798.10582 267.72083 792.19727 264.04883 C 801.59536 278.13042 807.51913 293.95887 810.14453 311.9043 C 811.28193 319.67865 811.2793 334.68006 810.13867 342.60156 C 808.31066 355.31248 805.01577 365.9621 799.30273 377.61914 C 797.74091 380.80596 796.03855 383.89417 794.2207 386.89258 C 806.02413 379.63192 817.82576 370.995 828.85742 361.625 z M 794.2207 386.89258 C 790.93289 388.91501 787.64682 390.84001 784.37695 392.63477 C 783.21818 393.27078 782.06125 393.87825 780.9043 394.49023 C 774.08966 403.06333 765.96771 410.59182 756.72656 416.75586 C 751.83924 420.01583 750.83789 420.96432 750.83789 422.33398 C 750.83789 422.95954 751.38776 424.02054 752.06055 424.69336 C 753.70367 426.33649 754.76344 426.02922 760.47461 422.25 C 774.07195 413.2522 785.55727 401.18229 794.2207 386.89258 z M 780.9043 394.49023 C 792.5431 379.84815 800.36253 362.14718 803.38281 342.91602 C 804.43759 336.19989 804.77472 324.89407 804.12891 317.89844 C 802.10593 295.98398 793.34271 274.70014 779.54102 258.17969 C 778.90751 257.42138 778.06798 256.48969 777.16211 255.50586 C 757.05853 245.13852 736.41017 238.66831 715 236.01562 C 706.5905 234.9737 702.62942 234.75118 692.85742 234.77148 C 683.01461 234.7919 677.67553 235.12512 668.90625 236.26758 C 655.09713 238.06663 639.5986 241.82924 626.01758 246.67773 C 592.32914 258.70463 558.8732 279.00117 528.05078 306.11328 C 522.18964 311.26889 513.45546 319.61086 509.54102 323.79102 L 506.27539 327.27734 L 514.55664 335.45898 C 532.79027 353.47206 549.22374 367.02367 568.16797 379.66797 C 602.70741 402.72124 638.70798 415.90811 673.91992 418.4043 C 676.29416 418.57262 678.86303 418.7557 679.62891 418.8125 C 682.688 419.03938 698.0171 418.68564 702.4668 418.28516 C 729.74243 415.83032 755.12406 408.12705 780.9043 394.49023 z M 777.16211 255.50586 C 782.20743 258.10771 787.21726 260.95389 792.19727 264.04883 C 787.8785 257.57783 782.82919 251.47362 777.02344 245.70508 C 769.65538 238.38421 766.78387 236.28047 764.85547 236.79102 C 763.03526 237.27294 762.08048 239.3402 762.83594 241.16406 C 763.15032 241.92296 763.93118 242.88853 764.57227 243.30859 C 766.36899 244.48585 772.88913 250.86515 777.16211 255.50586 z M 684.98438 250.64453 C 696.49459 250.45962 708.10031 252.68971 718.92383 257.43359 C 741.72263 267.42619 758.47163 287.57051 763.61133 311.17969 C 766.09963 322.60986 765.75568 335.26065 762.64648 346.60156 C 758.48748 361.77175 749.43148 375.5124 736.98828 385.53516 C 725.54538 394.7523 712.86083 400.28548 697.99023 402.54688 C 693.56453 403.21991 683.047 403.51643 678.79297 403.08789 C 665.27745 401.72635 652.80985 397.35681 641.89258 390.1543 C 623.72849 378.1708 611.77715 359.95607 608.17383 338.76562 C 607.42065 334.3363 607.12607 324.10862 607.61914 319.47461 C 609.84668 298.54008 620.75313 279.48675 637.87305 266.61914 C 651.54386 256.34393 668.16175 250.91478 684.98438 250.64453 z M 747.68359 261.98633 C 749.1683 262.06133 751.00108 263.47454 755.00977 267.25391 C 769.24203 280.67198 778.21238 298.48467 780.61133 318.08594 C 781.4266 324.74693 780.92643 337.82304 779.61719 344.04102 C 775.4358 363.89944 764.75369 381.22362 749.16016 393.43555 C 741.56097 399.38681 738.88296 400.47432 736.94531 398.39453 C 734.91719 396.21757 735.85495 394.54353 741.00391 391.15039 C 758.41931 379.67376 770.78026 359.69974 773.86914 338.04492 C 774.70852 332.16004 774.49809 321.27732 773.42383 315.01172 C 770.55986 298.30847 762.93447 284.17687 750.24805 272.06445 C 747.49101 269.43216 745.01856 266.84947 744.75391 266.32617 C 744.02978 264.89431 744.71537 263.05848 746.24805 262.32031 C 746.73365 262.0864 747.18869 261.96133 747.68359 261.98633 z M 731.51562 280.0625 C 729.84364 279.98879 728.53922 281.16247 728.38477 283.01172 C 728.24529 284.68122 728.47368 285.01745 732.13281 288.49023 C 742.11324 297.96229 747.31781 308.45564 748.9668 322.4375 C 750.31933 333.9058 746.60975 347.56001 739.39062 357.68945 C 736.43723 361.83343 731.20238 367.05289 727.09375 369.95117 C 725.24697 371.25388 723.47369 372.64882 723.15234 373.05078 C 722.1631 374.28798 722.40818 376.75456 723.60352 377.5918 C 725.31336 378.78941 726.38443 378.49828 730.46094 375.73242 C 735.24829 372.4842 741.46609 366.34055 744.90625 361.45898 C 750.00391 354.22537 754.08405 343.94249 755.24219 335.4082 C 756.05445 329.42303 755.45217 318.1134 754.04102 312.86328 C 751.8556 304.73208 749.84366 300.34214 744.95898 293.04297 C 742.15784 288.85715 734.02206 280.61615 732.25195 280.17188 C 732.00034 280.10872 731.75448 280.07303 731.51562 280.0625 z M 687.34375 284.58398 C 676.01275 284.46328 664.83453 288.62848 656.26953 296.73438 C 642.73486 309.54356 639.02442 329.43717 647.0918 345.94531 C 653.63814 359.34099 666.63303 368.42346 681.99609 370.33984 C 682.53221 370.40674 685.22722 370.42285 687.98438 370.37695 C 691.77587 370.31382 693.6769 370.14945 695.7832 369.70312 C 704.9282 367.76534 711.988 363.95636 718.5 357.44531 C 724.6935 351.25286 728.33274 344.64681 730.21484 336.17383 C 731.11574 332.11842 731.23958 325.10162 730.48828 320.69727 C 728.17368 307.12758 719.77555 295.79641 707.37305 289.50586 C 700.99591 286.27138 694.14235 284.65641 687.34375 284.58398 z "
       style="fill:#000000;stroke-width:0.278504"
       id="path14" />
  </g>
</svg>
