<?xml version="1.0" encoding="UTF-8" standalone="no"?>
<svg
   xmlns:dc="http://purl.org/dc/elements/1.1/"
   xmlns:cc="http://creativecommons.org/ns#"
   xmlns:rdf="http://www.w3.org/1999/02/22-rdf-syntax-ns#"
   xmlns:svg="http://www.w3.org/2000/svg"
   xmlns="http://www.w3.org/2000/svg"
   xmlns:sodipodi="http://sodipodi.sourceforge.net/DTD/sodipodi-0.dtd"
   xmlns:inkscape="http://www.inkscape.org/namespaces/inkscape"
   sodipodi:docname="Visually_Impaired_Symbol_clip_art.svg"
   height="838"
   width="752"
   inkscape:version="1.0 (4035a4fb49, 2020-05-01)"
   version="1.1"
   id="svg2">
  <metadata
     id="metadata8">
    <rdf:RDF>
      <cc:Work
         rdf:about="">
        <dc:format>image/svg+xml</dc:format>
        <dc:type
           rdf:resource="http://purl.org/dc/dcmitype/StillImage" />
        <dc:title />
      </cc:Work>
    </rdf:RDF>
  </metadata>
  <defs
     id="defs6">
    <inkscape:perspective
       id="perspective10"
       inkscape:persp3d-origin="0.5 : 0.33333333 : 1"
       inkscape:vp_z="1 : 0.5 : 1"
       inkscape:vp_y="0 : 1000 : 0"
       inkscape:vp_x="0 : 0.5 : 1"
       sodipodi:type="inkscape:persp3d" />
  </defs>
  <sodipodi:namedview
     inkscape:document-rotation="0"
     inkscape:current-layer="svg2"
     inkscape:window-maximized="1"
     inkscape:window-y="-8"
     inkscape:window-x="1016"
     inkscape:cy="174.08069"
     inkscape:cx="897.3757"
     inkscape:zoom="0.28162292"
     showgrid="false"
     id="namedview4"
     inkscape:window-height="705"
     inkscape:window-width="1366"
     inkscape:pageshadow="2"
     inkscape:pageopacity="0"
     guidetolerance="10"
     gridtolerance="10"
     objecttolerance="10"
     borderopacity="1"
     bordercolor="#666666"
     pagecolor="#ffffff" />
  <path
     sodipodi:nodetypes="sssssscccsssssssssscccsssssssssssssscsssssssssssssscssssssssssssssssss"
     id="path2818"
     d="m 221.60169,817.56247 c -1.1,-0.29459 -5.15,-1.67162 -9,-3.06008 -3.85,-1.38846 -14.11855,-4.95794 -22.81899,-7.93217 -8.70045,-2.97423 -18.60045,-6.79262 -22,-8.4853 -7.5323,-3.75044 -15.91986,-11.65204 -19.51203,-18.38153 -2.44739,-4.58488 -2.66898,-5.95476 -2.66898,-16.5 v -11.5 l 40.20181,-126.5 40.2018,-126.5 0.55423,-57.5 c 0.30482,-31.625 0.79699,-69.5375 1.09371,-84.25 0.29672,-14.7125 0.17688,-26.75 -0.26632,-26.75 -1.36282,0 -34.28523,64.64982 -34.28523,67.32599 0,1.382 3.43588,24.03652 7.63529,50.34337 4.1994,26.30685 7.83884,49.43608 8.08764,51.39829 0.75902,5.98621 -1.36521,11.37978 -6.84198,17.37223 -13.68025,14.96838 -34.2657,15.67516 -45.63095,1.56669 -2.3375,-2.9017 -4.25,-5.61617 -4.25,-6.03215 0,-0.41598 -4.93604,-31.18424 -10.96898,-68.37391 l -10.96899,-67.61757 44.34282,-80.74147 44.34282,-80.74147 5.37617,-3.2823 c 8.8845,-5.42425 16.6384,-7.34827 31.87616,-7.90961 22.79002,-0.83956 40.79502,3.54585 48.66283,11.85262 1.73956,1.83661 43.51262,52.38929 92.82901,112.33929 65.3125,79.39517 90.59534,110.82655 93.08718,115.72504 2.97631,5.85087 3.41814,7.67068 3.39903,14 -0.0267,8.82596 -2.26465,14.39556 -8.28125,20.60915 -11.28123,11.65056 -28.55477,12.90822 -40.76257,2.96786 -2.2304,-1.81613 -30.53781,-34.57705 -62.90535,-72.80205 -101.3889,-119.73693 -105.06666,-124 -106.9751,-124 -2.84858,0 -4.55392,2.71189 -3.47581,5.52735 0.50712,1.32432 11.72203,15.10677 24.92203,30.62765 13.2,15.52089 24.675,29.37297 25.5,30.7824 1.28738,2.19936 1.54342,12.69739 1.80631,74.0626 l 0.30631,71.5 -44.60315,124.88751 c -24.53174,68.68812 -44.46958,125.56391 -44.30631,126.39064 0.16326,0.82672 2.71013,2.41941 5.65971,3.5393 7.54288,2.86387 15.14631,10.12598 18.73195,17.89107 2.50559,5.42612 2.89874,7.46061 2.85837,14.79148 -0.0393,7.14163 -0.48106,9.39914 -2.76414,14.12639 -3.25248,6.73444 -10.87052,14.16018 -17.4301,16.99013 -4.70608,2.0303 -16.70948,3.32701 -20.75895,2.24256 z m 150.72624,-16.47118 c -10.39041,-1.73041 -20.09192,-8.68345 -25.86791,-18.53943 -3.02584,-5.16321 -56.35833,-156.52927 -56.35833,-159.95389 0,-2.26272 33.71719,-97.29623 35.88127,-101.13305 1.28205,-2.27304 -1.66223,-9.22968 43.61908,103.06138 35.56226,88.18925 37.9591,93.77546 39.91684,93.03269 1.14555,-0.43461 6.13281,-0.79288 11.08281,-0.79615 7.09384,-0.005 9.99909,0.44995 13.71723,2.14658 7.00925,3.19839 14.05234,10.30478 17.40325,17.55966 2.45789,5.32145 2.87953,7.47893 2.87953,14.73431 0,7.28111 -0.40069,9.31595 -2.79425,14.19009 -4.95149,10.08305 -10.69131,14.22485 -34.3576,24.79212 -26.21213,11.70402 -31.97086,13.09587 -45.12192,10.90569 z M 249.15971,187.08431 c -10.76787,-2.89058 -19.38791,-8.05443 -28.05825,-16.80838 -12.87539,-12.99953 -18.31837,-26.25339 -18.30465,-44.57254 0.0141,-18.8251 5.40247,-31.834613 18.68678,-45.116794 8.69796,-8.696559 15.64741,-12.894024 27.46068,-16.58622 10.04109,-3.138308 27.03978,-2.870649 36.96697,0.582079 10.71156,3.725534 17.80884,8.160799 25.73343,16.081452 7.62494,7.621152 12.38305,15.329482 15.76471,25.539483 2.95314,8.9162 3.12815,29.75212 0.31918,38 -5.87796,17.25922 -17.20689,30.75939 -31.81283,37.90989 -4.57272,2.23863 -10.99608,4.7497 -14.27414,5.58017 -8.43539,2.13703 -23.28963,1.85847 -32.48188,-0.60914 z"
     style="fill:#000000" />
  <path
     style="fill:#000000;stroke-width:0.719024"
     d="m 467.73354,733.61557 c -0.60937,-2.17708 0.27556,-4.25129 2.39799,-5.62076 0.56748,-0.36616 4.47809,-0.64365 8.69026,-0.61666 49.58159,0.31781 100.52365,-14.75224 142.02347,-42.01442 58.81211,-38.635 98.99908,-99.05053 111.6078,-167.78684 5.73236,-31.24982 5.89117,-61.46316 0.48273,-91.83859 -2.00421,-11.25615 -1.71293,-13.31681 2.03037,-14.36453 4.29262,-1.20149 5.65996,0.71388 7.37393,10.32952 8.23311,46.18885 5.04925,91.33955 -9.46893,134.28008 -14.15973,41.88035 -39.40148,80.66386 -72.16657,110.88273 -45.21169,41.69821 -104.526,66.77814 -165.58556,70.01471 -22.01661,1.16703 -26.28746,0.6578 -27.38549,-3.26524 z m -13.2004,-50.0045 c -0.2642,-0.88235 0.15545,-2.74472 0.94615,-4.19889 1.82515,-3.35655 2.77431,-3.54873 14.86677,-3.01004 82.15259,3.65969 159.35858,-42.79182 194.69544,-117.13982 19.68929,-41.42589 25.09853,-90.11942 14.88392,-133.98402 -2.62454,-11.27059 -2.53198,-14.27355 0.50064,-16.2436 2.83491,-1.84161 6.45523,-1.03833 8.33046,1.84832 2.6006,4.00331 7.40515,31.17068 8.30625,46.96796 2.91738,51.14462 -11.62938,100.39871 -41.86369,141.7469 -27.06431,37.01296 -64.94903,64.48578 -108.56104,78.72514 -25.24957,8.24402 -53.4632,11.86486 -80.70823,10.35782 -7.15582,-0.39581 -10.43374,-1.854 -11.39667,-5.06977 z m 6.24713,-45.22862 c -0.21882,-1.40944 0.055,-3.18191 0.60846,-3.93884 1.21183,-1.65731 3.2637,-1.91921 12.06181,-1.53962 45.04802,1.94367 89.0124,-15.40824 121.78467,-48.06611 7.21857,-7.19337 17.62912,-20.57441 23.03728,-29.61059 16.94156,-28.30669 25.16971,-61.81466 23.0864,-94.01606 -0.54669,-8.45013 -3.58115,-27.58662 -4.95367,-31.23981 -0.40408,-1.0755 -0.49652,-2.93431 -0.20542,-4.13071 0.69958,-2.87531 3.684,-4.53222 6.31291,-3.50484 2.78508,1.08841 4.39899,6.17618 6.83713,21.55363 6.1018,38.48427 0.0439,74.32194 -18.49349,109.40501 -5.50231,10.4134 -18.77895,28.56593 -27.16622,37.14307 -13.4583,13.76297 -26.86682,23.73185 -44.0935,32.78229 -27.1536,14.26579 -56.93472,21.03347 -86.47157,19.65041 -10.25433,-0.48014 -11.81039,-1.04585 -12.3448,-4.48785 z m 4.98046,-45.19733 c -0.52796,-4.4286 2.08745,-5.62404 11.31994,-5.17408 31.22716,1.52188 63.85588,-11.70928 86.75313,-35.17894 6.2225,-6.37809 15.598,-19.73427 19.84172,-28.26625 11.3132,-22.74515 14.58873,-46.59133 9.95482,-72.47215 -1.00706,-5.62448 -1.71421,-10.93598 -1.57145,-11.80334 0.39063,-2.37329 2.84395,-3.99058 5.3514,-3.52785 3.17826,0.58649 4.22781,2.89575 6.2367,13.72224 5.34921,28.82843 0.44511,58.32003 -13.99484,84.1604 -4.90705,8.7812 -17.08441,24.16094 -24.17016,30.52638 -22.62978,20.32935 -50.88361,31.84047 -80.55681,32.82029 -14.4607,0.47751 -18.66005,-0.57575 -19.16445,-4.8067 z m 2.26062,-36.97673 c -0.7056,-2.07068 1.18021,-5.27212 3.47179,-5.89393 0.74451,-0.20202 4.12502,-0.32013 7.51221,-0.26248 7.53584,0.12827 18.48679,-1.55626 25.72691,-3.95747 17.69754,-5.86945 34.26713,-19.11036 42.77743,-34.18385 10.37554,-18.37721 13.36408,-35.67771 9.66832,-55.96947 -1.35498,-7.43961 -1.33604,-8.04728 0.30985,-9.94401 2.08354,-2.40106 5.20349,-2.40782 7.19211,-0.0156 1.74882,2.10376 4.30243,19.27397 3.98837,26.81728 -0.54765,13.15392 -1.99764,20.24431 -6.5475,32.01682 -2.93773,7.60125 -12.21455,21.81905 -18.4929,28.34253 -8.95235,9.30188 -22.98708,18.13482 -35.55547,22.37729 -8.48169,2.86302 -21.44351,4.79622 -30.11025,4.49084 -7.37976,-0.26005 -8.93157,-0.85606 -9.94087,-3.81799 z"
     id="path14" />
</svg>
